/* XPM */
static char * e_xpm[] = {
"64 64 3 1",
" 	c #FFFFFF",
".	c #FFD2D2",
"+	c #FF0000",
"        ........        ........        ........        ........",
"        ........        ........        ........        ........",
"        ........        ........        ........        ........",
"        ........        ........        ........        ........",
"        ........        ........        ........        ........",
"        ........        ........        ........        ........",
"        ........        ........        ........        ........",
"        ........        ........        ........        ........",
"........++++++++++++++++++++++++++++++++++++++++++++++++        ",
"........++++++++++++++++++++++++++++++++++++++++++++++++        ",
"........++++++++++++++++++++++++++++++++++++++++++++++++        ",
"........++++++++++++++++++++++++++++++++++++++++++++++++        ",
"........++++++++++++++++++++++++++++++++++++++++++++++++        ",
"........++++++++++++++++++++++++++++++++++++++++++++++++        ",
"........++++++++++++++++++++++++++++++++++++++++++++++++        ",
"........++++++++++++++++++++++++++++++++++++++++++++++++        ",
"        ++++++++        ........        ........        ........",
"        ++++++++        ........        ........        ........",
"        ++++++++        ........        ........        ........",
"        ++++++++        ........        ........        ........",
"        ++++++++        ........        ........        ........",
"        ++++++++        ........        ........        ........",
"        ++++++++        ........        ........        ........",
"        ++++++++        ........        ........        ........",
"........++++++++++++++++++++++++........        ........        ",
"........++++++++++++++++++++++++........        ........        ",
"........++++++++++++++++++++++++........        ........        ",
"........++++++++++++++++++++++++........        ........        ",
"........++++++++++++++++++++++++........        ........        ",
"........++++++++++++++++++++++++........        ........        ",
"........++++++++++++++++++++++++........        ........        ",
"........++++++++++++++++++++++++........        ........        ",
"        ++++++++        ........        ........        ........",
"        ++++++++        ........        ........        ........",
"        ++++++++        ........        ........        ........",
"        ++++++++        ........        ........        ........",
"        ++++++++        ........        ........        ........",
"        ++++++++        ........        ........        ........",
"        ++++++++        ........        ........        ........",
"        ++++++++        ........        ........        ........",
"........++++++++........        ........        ........        ",
"........++++++++........        ........        ........        ",
"........++++++++........        ........        ........        ",
"........++++++++........        ........        ........        ",
"........++++++++........        ........        ........        ",
"........++++++++........        ........        ........        ",
"........++++++++........        ........        ........        ",
"........++++++++........        ........        ........        ",
"        ++++++++++++++++++++++++++++++++++++++++++++++++........",
"        ++++++++++++++++++++++++++++++++++++++++++++++++........",
"        ++++++++++++++++++++++++++++++++++++++++++++++++........",
"        ++++++++++++++++++++++++++++++++++++++++++++++++........",
"        ++++++++++++++++++++++++++++++++++++++++++++++++........",
"        ++++++++++++++++++++++++++++++++++++++++++++++++........",
"        ++++++++++++++++++++++++++++++++++++++++++++++++........",
"        ++++++++++++++++++++++++++++++++++++++++++++++++........",
"........        ........        ........        ........        ",
"........        ........        ........        ........        ",
"........        ........        ........        ........        ",
"........        ........        ........        ........        ",
"........        ........        ........        ........        ",
"........        ........        ........        ........        ",
"........        ........        ........        ........        ",
"........        ........        ........        ........        "};
