/* XPM */
static char * N_xpm[] = {
"64 64 4 1",
" 	c #BB843A",
".	c #E3B373",
"+	c #13100C",
"@	c #FFFFFF",
"                ................                ................",
"                ................                ................",
"                ................                ................",
"                ................                ................",
"                ................                ................",
"                ................                ................",
"                ................                ................",
"                ................                ................",
"                ........++++++++++++++++        ................",
"                ........++++++++++++++++        ................",
"                ........++++++++++++++++        ................",
"                ........++++++++++++++++        ................",
"                ....++++++++++++++++++++++++    ................",
"                ....++++++++++++++++++++++++    ................",
"                ....++++++++++++++++++++++++    ................",
"                ....++++++++++++++++++++++++    ................",
"................    ++++++++++++++++++++++++....                ",
"................    ++++++++++++++++++++++++....                ",
"................    ++++++++++++++++++++++++....                ",
"................    ++++++++++++++++++++++++....                ",
"................++++++++++++@@@@@@@@++++++++++++                ",
"................++++++++++++@@@@@@@@++++++++++++                ",
"................++++++++++++@@@@@@@@++++++++++++                ",
"................++++++++++++@@@@@@@@++++++++++++                ",
"................++++++++@@@@++++++++@@@@++++++++                ",
"................++++++++@@@@++++++++@@@@++++++++                ",
"................++++++++@@@@++++++++@@@@++++++++                ",
"................++++++++@@@@++++++++@@@@++++++++                ",
"................++++++++++++++++++++++++++++++++                ",
"................++++++++++++++++++++++++++++++++                ",
"................++++++++++++++++++++++++++++++++                ",
"................++++++++++++++++++++++++++++++++                ",
"                ++++++++++++++++++++++++++++++++................",
"                ++++++++++++++++++++++++++++++++................",
"                ++++++++++++++++++++++++++++++++................",
"                ++++++++++++++++++++++++++++++++................",
"                ++++++++++++@@@@@@@@++++++++++++................",
"                ++++++++++++@@@@@@@@++++++++++++................",
"                ++++++++++++@@@@@@@@++++++++++++................",
"                ++++++++++++@@@@@@@@++++++++++++................",
"                ++++++++++++++++++++++++++++++++................",
"                ++++++++++++++++++++++++++++++++................",
"                ++++++++++++++++++++++++++++++++................",
"                ++++++++++++++++++++++++++++++++................",
"                ++++++++........        ++++++++................",
"                ++++++++........        ++++++++................",
"                ++++++++........        ++++++++................",
"                ++++++++........        ++++++++................",
"................++++            ............++++                ",
"................++++            ............++++                ",
"................++++            ............++++                ",
"................++++            ............++++                ",
"................++++            ............++++                ",
"................++++            ............++++                ",
"................++++            ............++++                ",
"................++++            ............++++                ",
"................                ................                ",
"................                ................                ",
"................                ................                ",
"................                ................                ",
"................                ................                ",
"................                ................                ",
"................                ................                ",
"................                ................                "};
