/* XPM */
static char * s_xpm[] = {
"64 64 4 1",
" 	c #FFFFFF",
".	c #FFD2D2",
"+	c #E6FEFA",
"@	c #FF0000",
"        ........        ........        ........        ........",
"        ........        ........        ........        ........",
"        ........        ........        ........        ........",
"        ........        ........        ........        ........",
"        ........        ........        ........        ........",
"        ........        ........        ........        ........",
"        ........        ........        ........        ........",
"        ........        ........        ........        ........",
"........++++++++@@@@@@@@@@@@@@@@@@@@@@@@@@@@@@@@@@@@@@@@        ",
"........++++++++@@@@@@@@@@@@@@@@@@@@@@@@@@@@@@@@@@@@@@@@        ",
"........++++++++@@@@@@@@@@@@@@@@@@@@@@@@@@@@@@@@@@@@@@@@        ",
"........++++++++@@@@@@@@@@@@@@@@@@@@@@@@@@@@@@@@@@@@@@@@        ",
"........++++++++@@@@@@@@@@@@@@@@@@@@@@@@@@@@@@@@@@@@@@@@        ",
"........++++++++@@@@@@@@@@@@@@@@@@@@@@@@@@@@@@@@@@@@@@@@        ",
"........++++++++@@@@@@@@@@@@@@@@@@@@@@@@@@@@@@@@@@@@@@@@        ",
"........++++++++@@@@@@@@@@@@@@@@@@@@@@@@@@@@@@@@@@@@@@@@        ",
"        @@@@@@@@        ........        ........        ........",
"        @@@@@@@@        ........        ........        ........",
"        @@@@@@@@        ........        ........        ........",
"        @@@@@@@@        ........        ........        ........",
"        @@@@@@@@        ........        ........        ........",
"        @@@@@@@@        ........        ........        ........",
"        @@@@@@@@        ........        ........        ........",
"        @@@@@@@@        ........        ........        ........",
"........++++++++@@@@@@@@@@@@@@@@@@@@@@@@@@@@@@@@........        ",
"........++++++++@@@@@@@@@@@@@@@@@@@@@@@@@@@@@@@@........        ",
"........++++++++@@@@@@@@@@@@@@@@@@@@@@@@@@@@@@@@........        ",
"........++++++++@@@@@@@@@@@@@@@@@@@@@@@@@@@@@@@@........        ",
"........++++++++@@@@@@@@@@@@@@@@@@@@@@@@@@@@@@@@........        ",
"........++++++++@@@@@@@@@@@@@@@@@@@@@@@@@@@@@@@@........        ",
"........++++++++@@@@@@@@@@@@@@@@@@@@@@@@@@@@@@@@........        ",
"........++++++++@@@@@@@@@@@@@@@@@@@@@@@@@@@@@@@@........        ",
"        ........        ........        ........@@@@@@@@........",
"        ........        ........        ........@@@@@@@@........",
"        ........        ........        ........@@@@@@@@........",
"        ........        ........        ........@@@@@@@@........",
"        ........        ........        ........@@@@@@@@........",
"        ........        ........        ........@@@@@@@@........",
"        ........        ........        ........@@@@@@@@........",
"        ........        ........        ........@@@@@@@@........",
"........        ........        ........        @@@@@@@@        ",
"........        ........        ........        @@@@@@@@        ",
"........        ........        ........        @@@@@@@@        ",
"........        ........        ........        @@@@@@@@        ",
"........        ........        ........        @@@@@@@@        ",
"........        ........        ........        @@@@@@@@        ",
"........        ........        ........        @@@@@@@@        ",
"........        ........        ........        @@@@@@@@        ",
"        @@@@@@@@@@@@@@@@@@@@@@@@@@@@@@@@@@@@@@@@++++++++........",
"        @@@@@@@@@@@@@@@@@@@@@@@@@@@@@@@@@@@@@@@@++++++++........",
"        @@@@@@@@@@@@@@@@@@@@@@@@@@@@@@@@@@@@@@@@++++++++........",
"        @@@@@@@@@@@@@@@@@@@@@@@@@@@@@@@@@@@@@@@@++++++++........",
"        @@@@@@@@@@@@@@@@@@@@@@@@@@@@@@@@@@@@@@@@++++++++........",
"        @@@@@@@@@@@@@@@@@@@@@@@@@@@@@@@@@@@@@@@@++++++++........",
"        @@@@@@@@@@@@@@@@@@@@@@@@@@@@@@@@@@@@@@@@++++++++........",
"        @@@@@@@@@@@@@@@@@@@@@@@@@@@@@@@@@@@@@@@@++++++++........",
"........        ........        ........        ........        ",
"........        ........        ........        ........        ",
"........        ........        ........        ........        ",
"........        ........        ........        ........        ",
"........        ........        ........        ........        ",
"........        ........        ........        ........        ",
"........        ........        ........        ........        ",
"........        ........        ........        ........        "};
