/* XPM */
static char * test_xpm[] = {
"16 16 2 1",
" 	c #7030C4",
".	c #2FB13B",
"                ",
"                ",
"                ",
"                ",
"                ",
"                ",
"                ",
"                ",
"................",
"................",
"................",
"................",
"................",
"................",
"................",
"................"};
